<svg width="685" height="240" viewBox="0 0 685 240" fill="none" xmlns="http://www.w3.org/2000/svg">
<path d="M819.54 -153.059C819.54 -149.799 822.183 -147.155 825.444 -147.155C828.704 -147.155 831.348 -149.799 831.348 -153.059C831.348 -156.32 828.704 -158.963 825.444 -158.963C822.183 -158.963 819.54 -156.32 819.54 -153.059ZM779.131 -19.4917L778.132 -19.9688L779.131 -19.4917ZM546.323 245.821L545.697 244.909L546.323 245.821ZM383.223 326.556L382.935 325.488L383.223 326.556ZM311.693 338.638L311.639 337.532L311.693 338.638ZM242.368 320.612L241.519 321.322L242.368 320.612ZM229.807 273.916L228.701 273.895L229.807 273.916ZM270.271 162.21L269.346 161.602L270.271 162.21ZM341.417 74.1877L340.612 73.4279L341.417 74.1877ZM447.849 -15.5605L447.293 -16.5173L447.849 -15.5605ZM530.79 -33.8745L531.215 -34.8965L530.79 -33.8745ZM547.186 41.7786L548.223 42.1648L547.186 41.7786ZM447.178 163.744L446.483 162.882L447.178 163.744ZM269.312 246.397L269.066 245.318L269.312 246.397ZM99.5 235.274L99.9466 234.261L99.5 235.274ZM7.54648 116.185L6.46964 116.442L7.54648 116.185ZM32.4765 -60.6263L31.456 -61.0552L32.4765 -60.6263ZM74.1864 -140.882L75.1195 -140.286L74.1864 -140.882ZM139.525 -229C139.525 -225.739 142.168 -223.096 145.429 -223.096C148.689 -223.096 151.333 -225.739 151.333 -229C151.333 -232.261 148.689 -234.904 145.429 -234.904C142.168 -234.904 139.525 -232.261 139.525 -229ZM145.429 -229L144.58 -229.711C144.114 -229.154 143.646 -228.598 143.178 -228.043L144.024 -227.33L144.871 -226.616C145.34 -227.173 145.809 -227.73 146.277 -228.289L145.429 -229ZM141.204 -224.003L140.361 -224.72C139.418 -223.614 138.474 -222.51 137.528 -221.41L138.368 -220.689L139.207 -219.967C140.155 -221.07 141.101 -222.175 142.046 -223.285L141.204 -224.003ZM135.518 -217.385L134.681 -218.109C133.729 -217.01 132.776 -215.912 131.823 -214.817L132.658 -214.09L133.493 -213.364C134.448 -214.46 135.402 -215.559 136.355 -216.66L135.518 -217.385ZM129.792 -210.802L128.958 -211.531C128.001 -210.435 127.044 -209.341 126.087 -208.248L126.92 -207.519L127.754 -206.79C128.71 -207.883 129.668 -208.978 130.625 -210.074L129.792 -210.802ZM124.047 -204.236L123.214 -204.965C122.256 -203.87 121.298 -202.775 120.341 -201.681L121.175 -200.952L122.009 -200.224C122.965 -201.318 123.922 -202.412 124.88 -203.507L124.047 -204.236ZM118.307 -197.665L117.472 -198.392C116.516 -197.295 115.562 -196.197 114.609 -195.098L115.446 -194.373L116.282 -193.648C117.234 -194.745 118.187 -195.842 119.142 -196.938L118.307 -197.665ZM112.594 -191.071L111.755 -191.793C110.806 -190.69 109.858 -189.585 108.913 -188.477L109.755 -187.759L110.597 -187.04C111.54 -188.145 112.485 -189.248 113.433 -190.349L112.594 -191.071ZM106.932 -184.433L106.086 -185.148C105.147 -184.035 104.211 -182.92 103.277 -181.801L104.128 -181.092L104.978 -180.383C105.908 -181.498 106.841 -182.61 107.778 -183.719L106.932 -184.433ZM101.344 -177.733L100.49 -178.436C99.5644 -177.311 98.6431 -176.183 97.7258 -175.05L98.5861 -174.354L99.4465 -173.657C100.36 -174.785 101.278 -175.909 102.199 -177.03L101.344 -177.733ZM95.8554 -170.952L94.9891 -171.641C94.0823 -170.501 93.18 -169.356 92.2825 -168.206L93.1552 -167.525L94.0279 -166.844C94.9209 -167.989 95.819 -169.128 96.7217 -170.262L95.8554 -170.952ZM90.4888 -164.072L89.6092 -164.745C88.7249 -163.587 87.8459 -162.424 86.9725 -161.255L87.8595 -160.592L88.7464 -159.93C89.6148 -161.093 90.4889 -162.249 91.3684 -163.4L90.4888 -164.072ZM85.2698 -157.082L84.3752 -157.734C83.5174 -156.557 82.6655 -155.372 81.82 -154.181L82.7227 -153.54L83.6255 -152.9C84.4655 -154.083 85.312 -155.26 86.1645 -156.43L85.2698 -157.082ZM80.221 -149.966L79.3099 -150.594C78.4829 -149.396 77.6624 -148.189 76.849 -146.975L77.7687 -146.359L78.6885 -145.743C79.4961 -146.949 80.3108 -148.147 81.1322 -149.337L80.221 -149.966ZM75.3678 -142.717L74.4392 -143.32C74.0421 -142.708 73.6468 -142.094 73.2533 -141.478L74.1864 -140.882L75.1195 -140.286C75.5099 -140.898 75.9022 -141.507 76.2964 -142.115L75.3678 -142.717ZM74.1864 -140.882L73.2533 -141.478C72.8433 -140.835 72.4369 -140.196 72.0337 -139.56L72.9688 -138.967L73.904 -138.375C74.3057 -139.009 74.7108 -139.646 75.1195 -140.286L74.1864 -140.882ZM70.5595 -135.134L69.62 -135.719C68.8117 -134.422 68.017 -133.137 67.2351 -131.86L68.1791 -131.282L69.1231 -130.704C69.9019 -131.975 70.6935 -133.256 71.4989 -134.548L70.5595 -135.134ZM65.8298 -127.41L64.881 -127.98C64.0955 -126.673 63.3228 -125.374 62.5619 -124.082L63.5158 -123.52L64.4697 -122.958C65.2272 -124.245 65.9965 -125.538 66.7787 -126.84L65.8298 -127.41ZM61.2353 -119.605L60.2762 -120.158C59.5163 -118.839 58.7679 -117.526 58.0297 -116.215L58.9943 -115.672L59.9588 -115.129C60.6933 -116.433 61.4382 -117.74 62.1945 -119.053L61.2353 -119.605ZM56.7919 -111.715L55.822 -112.249C55.0903 -110.918 54.3681 -109.589 53.6544 -108.259L54.6298 -107.736L55.6051 -107.212C56.3153 -108.536 57.0338 -109.858 57.7618 -111.182L56.7919 -111.715ZM52.5091 -103.735L51.5284 -104.249C50.8265 -102.908 50.1319 -101.565 49.4435 -100.216L50.4294 -99.7129L51.4153 -99.2095C52.1003 -100.551 52.7914 -101.888 53.4898 -103.222L52.5091 -103.735ZM48.3908 -95.67L47.3999 -96.1635C46.7275 -94.8132 46.06 -93.4562 45.3962 -92.0904L46.3918 -91.6065L47.3875 -91.1227C48.0482 -92.4822 48.7125 -93.8328 49.3817 -95.1765L48.3908 -95.67ZM44.4313 -87.5242L43.4313 -87.9988C42.7868 -86.6409 42.1448 -85.2726 41.5042 -83.8921L42.5083 -83.4261L43.5125 -82.9602C44.1504 -84.3351 44.7897 -85.6975 45.4314 -87.0495L44.4313 -87.5242ZM40.6184 -79.3089L39.6105 -79.7667C38.9907 -78.4019 38.3711 -77.0239 37.7509 -75.6308L38.7622 -75.1806L39.7735 -74.7303C40.3915 -76.1186 41.0088 -77.4916 41.6263 -78.8512L40.6184 -79.3089ZM36.9347 -71.0371L35.9203 -71.4804C35.3211 -70.1093 34.7203 -68.7226 34.1171 -67.319L35.1341 -66.8819L36.1511 -66.4448C36.7526 -67.8445 37.3516 -69.227 37.949 -70.5938L36.9347 -71.0371ZM33.3582 -62.717L32.3387 -63.1484C32.0453 -62.455 31.7511 -61.7574 31.456 -61.0552L32.4765 -60.6263L33.497 -60.1975C33.7914 -60.898 34.0849 -61.5939 34.3776 -62.2856L33.3582 -62.717ZM32.4765 -60.6263L31.456 -61.0552C31.1762 -60.3895 30.8976 -59.7232 30.6201 -59.0564L31.642 -58.631L32.664 -58.2057C32.9406 -58.8701 33.2183 -59.534 33.497 -60.1975L32.4765 -60.6263ZM29.9937 -54.6314L28.9687 -55.0496C28.423 -53.712 27.8822 -52.3723 27.3464 -51.0306L28.3745 -50.6201L29.4025 -50.2096C29.9362 -51.5461 30.475 -52.8807 31.0187 -54.2133L29.9937 -54.6314ZM26.7857 -46.5965L25.7545 -46.9989C25.2291 -45.6527 24.709 -44.3045 24.1947 -42.9543L25.2292 -42.5603L26.2636 -42.1662C26.7757 -43.5106 27.2936 -44.8532 27.8169 -46.194L26.7857 -46.5965ZM23.7064 -38.5114L22.6686 -38.8966C22.1656 -37.5415 21.6686 -36.1844 21.1779 -34.8254L22.2191 -34.4495L23.2603 -34.0735C23.7487 -35.4262 24.2434 -36.7771 24.7442 -38.1262L23.7064 -38.5114ZM20.7687 -30.3736L19.7241 -30.7399C19.2457 -29.3753 18.7739 -28.0088 18.309 -26.6405L19.3572 -26.2844L20.4053 -25.9284C20.8678 -27.2897 21.3372 -28.6494 21.8133 -30.0074L20.7687 -30.3736ZM17.9863 -22.1818L16.9346 -22.5273C16.4833 -21.1533 16.0391 -19.7775 15.6026 -18.3999L16.6578 -18.0655L17.7131 -17.7311C18.1473 -19.1011 18.589 -20.4695 19.038 -21.8363L17.9863 -22.1818ZM15.3733 -13.9342L14.3144 -14.257C13.8924 -12.8731 13.4783 -11.4874 13.0724 -10.1L14.1348 -9.7892L15.1973 -9.47836C15.6008 -10.8575 16.0125 -12.2352 16.4321 -13.6113L15.3733 -13.9342ZM12.9445 -5.63065L11.8785 -5.92897C11.4885 -4.5356 11.1071 -3.14058 10.7346 -1.74393L11.8041 -1.45862L12.8737 -1.17329C13.2439 -2.56111 13.6229 -3.94746 14.0105 -5.33232L12.9445 -5.63065ZM10.7153 2.72865L9.64218 2.45686C9.28677 3.86012 8.94055 5.26498 8.60384 6.67139L9.68039 6.92912L10.7569 7.18687C11.0914 5.78999 11.4353 4.3945 11.7884 3.00043L10.7153 2.72865ZM8.70152 11.1425L7.62159 10.8994C7.30359 12.3116 6.99545 13.7253 6.69746 15.1405L7.78069 15.3686L8.86391 15.5967C9.15974 14.1917 9.46569 12.788 9.78146 11.3857L8.70152 11.1425ZM6.91969 19.6081L5.8333 19.3957C5.55538 20.8168 5.28797 22.2395 5.0314 23.6635L6.12083 23.8598L7.21026 24.0561C7.46486 22.643 7.73024 21.2312 8.00609 19.8206L6.91969 19.6081ZM5.38626 28.1227L4.29395 27.9431C4.05903 29.3719 3.83528 30.8022 3.62303 32.2338L4.71803 32.3961L5.81304 32.5585C6.02356 31.1386 6.24551 29.7198 6.47857 28.3022L5.38626 28.1227ZM4.11816 36.6801L3.02066 36.5355C2.8315 37.9715 2.65417 39.4087 2.48899 40.8472L3.58873 40.9735L4.68848 41.0998C4.85224 39.6736 5.02807 38.2486 5.21565 36.8247L4.11816 36.6801ZM3.13186 45.2749L2.03011 45.1675C1.88951 46.6089 1.76138 48.0516 1.64605 49.4955L2.74951 49.5836L3.85297 49.6718C3.96726 48.241 4.09424 46.8112 4.23361 45.3824L3.13186 45.2749ZM2.44362 53.8987L1.33875 53.8304C1.24936 55.2759 1.17307 56.7225 1.11019 58.1702L2.21612 58.2182L3.32205 58.2662C3.38434 56.8322 3.45992 55.3992 3.54848 53.967L2.44362 53.8987ZM2.06881 62.5411L0.962176 62.5138C0.926474 63.9615 0.904461 65.4103 0.896453 66.8602L2.00341 66.8663L3.11037 66.8724C3.1183 65.4369 3.14009 64.0022 3.17545 62.5684L2.06881 62.5411ZM2.02156 71.1927L0.914696 71.2081C0.934925 72.6559 0.969395 74.1045 1.01841 75.5541L2.12476 75.5167L3.2311 75.4792C3.18258 74.0444 3.14846 72.6104 3.12843 71.1772L2.02156 71.1927ZM2.31434 79.8373L1.20898 79.897C1.28704 81.3426 1.37985 82.789 1.4877 84.2362L2.59161 84.1539L3.69553 84.0717C3.5888 82.6396 3.49696 81.2082 3.41971 79.7776L2.31434 79.8373ZM2.95776 88.4653L1.85578 88.5704C1.99322 90.0112 2.14584 91.4528 2.31395 92.8951L3.41348 92.7669L4.51301 92.6388C4.3467 91.2119 4.1957 89.7857 4.05973 88.3602L2.95776 88.4653ZM3.95934 97.0562L2.86276 97.2076C3.06058 98.6407 3.27395 100.075 3.50319 101.509L4.59629 101.334L5.6894 101.16C5.46266 99.7408 5.25159 98.3225 5.05592 96.9048L3.95934 97.0562ZM5.32493 105.6L4.23583 105.798C4.49467 107.221 4.76939 108.645 5.06026 110.069L6.14484 109.848L7.22943 109.626C6.94175 108.218 6.67005 106.809 6.41404 105.402L5.32493 105.6ZM7.05545 114.073L5.97589 114.318C6.13641 115.026 6.30098 115.734 6.46964 116.442L7.54648 116.185L8.62331 115.929C8.45651 115.229 8.29375 114.529 8.135 113.829L7.05545 114.073ZM7.54648 116.185L6.46964 116.442C6.63893 117.152 6.81074 117.861 6.9851 118.568L8.05984 118.302L9.13457 118.037C8.96164 117.336 8.79123 116.634 8.62331 115.929L7.54648 116.185ZM9.13529 122.511L8.06509 122.794C8.43813 124.205 8.82177 125.608 9.21617 127.002L10.2813 126.701L11.3465 126.4C10.9556 125.018 10.5753 123.627 10.2055 122.229L9.13529 122.511ZM11.501 130.871L10.4413 131.191C10.8642 132.59 11.2984 133.98 11.744 135.361L12.7975 135.021L13.851 134.681C13.4096 133.313 12.9795 131.936 12.5606 130.55L11.501 130.871ZM14.1722 139.145L13.1255 139.505C13.601 140.886 14.0885 142.258 14.5883 143.621L15.6275 143.24L16.6668 142.859C16.1723 141.51 15.6897 140.152 15.2189 138.784L14.1722 139.145ZM17.166 147.304L16.1349 147.706C16.6664 149.067 17.2106 150.418 17.7678 151.759L18.79 151.334L19.8122 150.909C19.2612 149.583 18.7229 148.247 18.1971 146.901L17.166 147.304ZM20.5019 155.327L19.4894 155.774C20.08 157.111 20.6842 158.436 21.302 159.751L22.3039 159.28L23.3057 158.809C22.6952 157.51 22.0982 156.2 21.5143 154.879L20.5019 155.327ZM24.1982 163.189L23.2079 163.684C23.8609 164.992 24.5281 166.288 25.2098 167.573L26.1877 167.054L27.1655 166.535C26.4925 165.266 25.8335 163.986 25.1885 162.695L24.1982 163.189ZM28.2731 170.867L27.3087 171.411C28.026 172.684 28.7583 173.945 29.5058 175.194L30.4557 174.625L31.4055 174.057C30.6681 172.825 29.9454 171.58 29.2375 170.324L28.2731 170.867ZM32.7366 178.324L31.8023 178.918C32.5855 180.151 33.3844 181.371 34.1991 182.579L35.1168 181.96L36.0345 181.341C35.2312 180.15 34.4435 178.946 33.6709 177.73L32.7366 178.324ZM37.5967 185.528L36.6967 186.172C37.5467 187.359 38.4128 188.533 39.2953 189.694L40.1766 189.024L41.0578 188.354C40.1881 187.21 39.3345 186.053 38.4967 184.883L37.5967 185.528ZM42.856 192.445L41.9946 193.14C42.9109 194.275 43.8439 195.397 44.7938 196.506L45.6344 195.785L46.475 195.065C45.5393 193.973 44.6202 192.868 43.7174 191.749L42.856 192.445ZM48.5107 199.043L47.6919 199.788C48.6733 200.866 49.6716 201.931 50.6873 202.982L51.4833 202.213L52.2793 201.443C51.2791 200.408 50.2959 199.36 49.3294 198.298L48.5107 199.043ZM54.5503 205.292L53.7779 206.085C54.8215 207.101 55.8823 208.104 56.9605 209.093L57.7086 208.277L58.4567 207.461C57.3949 206.487 56.3503 205.5 55.3227 204.499L54.5503 205.292ZM60.9551 211.164L60.232 212.002C61.3339 212.952 62.453 213.889 63.5897 214.811L64.2871 213.951L64.9846 213.092C63.8652 212.184 62.7631 211.261 61.6781 210.326L60.9551 211.164ZM67.7014 216.638L67.03 217.518C68.1858 218.4 69.3588 219.267 70.5493 220.121L71.1943 219.221L71.8393 218.321C70.6666 217.481 69.5112 216.626 68.3728 215.758L67.7014 216.638ZM74.7622 221.701L74.1439 222.619C75.3488 223.43 76.5707 224.228 77.8099 225.011L78.4015 224.076L78.9931 223.14C77.7719 222.368 76.5678 221.582 75.3806 220.783L74.7622 221.701ZM82.1082 226.346L81.5434 227.298C82.7924 228.039 84.0581 228.767 85.3408 229.48L85.8789 228.513L86.417 227.545C85.1522 226.842 83.9043 226.125 82.673 225.394L82.1082 226.346ZM89.7044 230.573L89.1928 231.554C90.4774 232.224 91.7782 232.88 93.0955 233.523L93.5809 232.528L94.0662 231.533C92.7664 230.899 91.483 230.251 90.216 229.591L89.7044 230.573ZM97.5085 234.381L97.049 235.388C97.7131 235.691 98.3812 235.991 99.0534 236.287L99.5 235.274L99.9466 234.261C99.283 233.969 98.6234 233.673 97.9679 233.374L97.5085 234.381ZM99.5 235.274L99.0534 236.287C99.7186 236.58 100.384 236.87 101.051 237.156L101.488 236.139L101.924 235.122C101.264 234.838 100.605 234.552 99.9466 234.261L99.5 235.274ZM105.481 237.807L105.064 238.833C106.41 239.38 107.758 239.912 109.109 240.431L109.506 239.397L109.903 238.364C108.565 237.85 107.23 237.323 105.898 236.782L105.481 237.807ZM113.564 240.91L113.187 241.951C114.553 242.445 115.921 242.925 117.293 243.392L117.649 242.344L118.005 241.296C116.648 240.834 115.293 240.359 113.94 239.869L113.564 240.91ZM121.76 243.698L121.424 244.753C122.807 245.194 124.192 245.621 125.58 246.034L125.896 244.973L126.212 243.912C124.838 243.503 123.466 243.08 122.096 242.643L121.76 243.698ZM130.056 246.169L129.76 247.236C131.159 247.624 132.56 247.998 133.964 248.359L134.239 247.287L134.515 246.215C133.125 245.858 131.737 245.487 130.352 245.103L130.056 246.169ZM138.442 248.326L138.186 249.403C139.598 249.738 141.011 250.06 142.427 250.368L142.663 249.287L142.898 248.205C141.496 247.9 140.096 247.581 138.698 247.249L138.442 248.326ZM146.9 250.17L146.684 251.255C148.107 251.538 149.531 251.808 150.957 252.065L151.154 250.975L151.35 249.886C149.937 249.631 148.525 249.364 147.116 249.084L146.9 250.17ZM155.421 251.704L155.244 252.797C156.676 253.028 158.109 253.247 159.543 253.453L159.701 252.357L159.858 251.261C158.436 251.057 157.016 250.841 155.598 250.611L155.421 251.704ZM163.991 252.935L163.853 254.033C165.291 254.214 166.73 254.382 168.171 254.538L168.29 253.438L168.41 252.337C166.981 252.182 165.554 252.016 164.129 251.836L163.991 252.935ZM172.598 253.867L172.497 254.97C173.941 255.101 175.385 255.221 176.83 255.328L176.912 254.224L176.994 253.12C175.561 253.014 174.129 252.895 172.699 252.765L172.598 253.867ZM181.232 254.51L181.168 255.615C182.614 255.698 184.061 255.77 185.509 255.83L185.555 254.724L185.601 253.618C184.165 253.559 182.73 253.487 181.296 253.405L181.232 254.51ZM189.882 254.87L189.854 255.976C191.302 256.013 192.75 256.039 194.2 256.053L194.211 254.946L194.222 253.839C192.784 253.825 191.347 253.8 189.91 253.763L189.882 254.87ZM198.539 254.956L198.546 256.063C199.994 256.055 201.442 256.035 202.891 256.005L202.868 254.899L202.845 253.792C201.407 253.822 199.97 253.841 198.533 253.849L198.539 254.956ZM207.195 254.777L207.234 255.883C208.681 255.831 210.129 255.769 211.576 255.696L211.52 254.591L211.465 253.485C210.028 253.557 208.592 253.619 207.156 253.67L207.195 254.777ZM215.843 254.342L215.914 255.446C217.359 255.353 218.803 255.249 220.247 255.135L220.16 254.031L220.073 252.928C218.639 253.041 217.205 253.144 215.771 253.237L215.843 254.342ZM224.473 253.66L224.576 254.763C226.017 254.629 227.458 254.485 228.898 254.331L228.781 253.23L228.663 252.129C227.232 252.282 225.802 252.425 224.371 252.558L224.473 253.66ZM233.082 252.742L233.214 253.841C234.651 253.668 236.088 253.485 237.524 253.293L237.377 252.196L237.231 251.099C235.804 251.289 234.377 251.471 232.95 251.642L233.082 252.742ZM241.664 251.594L241.825 252.69C243.256 252.479 244.687 252.26 246.117 252.031L245.943 250.938L245.768 249.845C244.347 250.072 242.925 250.29 241.503 250.499L241.664 251.594ZM250.213 250.228L250.401 251.319C251.827 251.073 253.252 250.818 254.676 250.554L254.475 249.466L254.273 248.377C252.858 248.639 251.442 248.893 250.025 249.137L250.213 250.228ZM258.727 248.651L258.942 249.737C260.361 249.457 261.779 249.167 263.196 248.87L262.968 247.787L262.741 246.703C261.332 246.999 259.923 247.286 258.512 247.565L258.727 248.651ZM267.2 246.872L267.44 247.953C268.146 247.796 268.852 247.637 269.558 247.476L269.312 246.397L269.066 245.318C268.364 245.478 267.662 245.636 266.96 245.792L267.2 246.872ZM269.312 246.397L269.558 247.476C270.289 247.309 271.021 247.141 271.752 246.971L271.501 245.892L271.25 244.814C270.522 244.984 269.794 245.151 269.066 245.318L269.312 246.397ZM275.876 244.855L276.136 245.931C277.595 245.578 279.053 245.219 280.51 244.854L280.241 243.78L279.972 242.706C278.521 243.07 277.069 243.428 275.616 243.779L275.876 244.855ZM284.596 242.667L284.875 243.739C286.328 243.361 287.78 242.977 289.231 242.586L288.943 241.517L288.655 240.448C287.21 240.837 285.764 241.22 284.318 241.596L284.596 242.667ZM293.279 240.328L293.576 241.395C295.022 240.992 296.467 240.582 297.91 240.166L297.604 239.102L297.297 238.038C295.86 238.453 294.421 238.861 292.982 239.262L293.279 240.328ZM301.917 237.837L302.234 238.898C303.673 238.47 305.11 238.034 306.546 237.592L306.22 236.534L305.895 235.476C304.465 235.916 303.034 236.35 301.601 236.777L301.917 237.837ZM310.511 235.193L310.847 236.248C312.277 235.793 313.707 235.332 315.134 234.864L314.79 233.812L314.445 232.76C313.024 233.226 311.601 233.685 310.176 234.138L310.511 235.193ZM319.055 232.393L319.41 233.442C320.832 232.961 322.253 232.474 323.672 231.98L323.308 230.935L322.944 229.889C321.532 230.381 320.117 230.866 318.701 231.344L319.055 232.393ZM327.547 229.437L327.921 230.479C329.334 229.972 330.746 229.459 332.155 228.939L331.771 227.9L331.388 226.862C329.985 227.38 328.58 227.891 327.173 228.395L327.547 229.437ZM335.982 226.323L336.375 227.358C337.779 226.825 339.18 226.285 340.58 225.738L340.177 224.707L339.774 223.676C338.381 224.22 336.986 224.758 335.588 225.289L335.982 226.323ZM344.356 223.05L344.769 224.077C346.162 223.517 347.553 222.95 348.942 222.376L348.519 221.353L348.096 220.33C346.714 220.901 345.33 221.465 343.943 222.023L344.356 223.05ZM352.665 219.615L353.098 220.634C354.48 220.046 355.86 219.452 357.237 218.851L356.794 217.837L356.351 216.822C354.981 217.42 353.608 218.012 352.232 218.596L352.665 219.615ZM360.905 216.017L361.358 217.027C362.729 216.412 364.096 215.79 365.461 215.162L364.997 214.156L364.534 213.151C363.176 213.776 361.816 214.395 360.452 215.007L360.905 216.017ZM369.07 212.254L369.544 213.254C370.902 212.612 372.257 211.962 373.608 211.305L373.124 210.31L372.64 209.314C371.296 209.967 369.948 210.614 368.597 211.253L369.07 212.254ZM377.157 208.324L377.651 209.314C378.996 208.643 380.337 207.965 381.674 207.281L381.169 206.295L380.665 205.31C379.335 205.991 378.001 206.666 376.663 207.333L377.157 208.324ZM385.159 204.225L385.674 205.205C387.005 204.505 388.331 203.799 389.653 203.085L389.127 202.111L388.602 201.137C387.287 201.847 385.967 202.549 384.644 203.245L385.159 204.225ZM393.072 199.955L393.608 200.923C394.923 200.195 396.234 199.46 397.54 198.718L396.993 197.755L396.446 196.793C395.147 197.531 393.844 198.262 392.536 198.986L393.072 199.955ZM400.889 195.513L401.447 196.469C402.745 195.712 404.039 194.948 405.328 194.176L404.76 193.226L404.192 192.276C402.909 193.043 401.623 193.803 400.331 194.556L400.889 195.513ZM408.604 190.896L409.184 191.839C410.465 191.053 411.741 190.259 413.012 189.459L412.422 188.522L411.832 187.585C410.568 188.382 409.299 189.171 408.025 189.953L408.604 190.896ZM416.212 186.104L416.813 187.033C418.075 186.217 419.332 185.394 420.585 184.563L419.973 183.641L419.361 182.718C418.116 183.544 416.866 184.363 415.611 185.174L416.212 186.104ZM423.704 181.134L424.327 182.049C425.57 181.203 426.807 180.35 428.039 179.49L427.405 178.582L426.772 177.675C425.547 178.53 424.317 179.378 423.082 180.219L423.704 181.134ZM431.076 175.986L431.72 176.885C432.942 176.009 434.159 175.126 435.369 174.236L434.713 173.344L434.057 172.452C432.854 173.337 431.645 174.215 430.431 175.086L431.076 175.986ZM438.318 170.658L438.985 171.541C440.185 170.635 441.378 169.722 442.566 168.801L441.888 167.926L441.21 167.051C440.03 167.966 438.843 168.874 437.651 169.774L438.318 170.658ZM445.424 165.149L446.113 166.016C446.701 165.547 447.288 165.078 447.873 164.606L447.178 163.744L446.483 162.882C445.902 163.351 445.319 163.818 444.735 164.283L445.424 165.149ZM447.178 163.744L447.873 164.606C448.445 164.144 449.019 163.68 449.593 163.214L448.895 162.355L448.197 161.496C447.625 161.96 447.054 162.422 446.483 162.882L447.178 163.744ZM452.325 159.548L453.029 160.402C454.166 159.465 455.304 158.519 456.445 157.564L455.734 156.716L455.024 155.867C453.888 156.818 452.753 157.76 451.621 158.694L452.325 159.548ZM459.122 153.857L459.839 154.7C460.962 153.745 462.086 152.781 463.211 151.809L462.487 150.971L461.763 150.134C460.643 151.102 459.523 152.062 458.405 153.014L459.122 153.857ZM465.828 148.058L466.559 148.889C467.667 147.915 468.775 146.933 469.882 145.942L469.144 145.117L468.405 144.292C467.303 145.278 466.201 146.257 465.097 147.227L465.828 148.058ZM472.432 142.149L473.177 142.967C474.269 141.973 475.359 140.971 476.447 139.961L475.694 139.15L474.941 138.339C473.858 139.343 472.773 140.341 471.686 141.331L472.432 142.149ZM478.927 136.12L479.688 136.925C480.762 135.909 481.833 134.886 482.9 133.856L482.132 133.059L481.363 132.263C480.301 133.288 479.235 134.305 478.167 135.316L478.927 136.12ZM485.306 129.966L486.082 130.754C487.136 129.716 488.186 128.671 489.232 127.619L488.447 126.839L487.662 126.059C486.622 127.105 485.577 128.144 484.529 129.177L485.306 129.966ZM491.554 123.679L492.348 124.45C493.38 123.389 494.407 122.321 495.428 121.246L494.625 120.484L493.823 119.721C492.808 120.79 491.787 121.852 490.76 122.907L491.554 123.679ZM497.659 117.254L498.47 118.007C499.478 116.921 500.479 115.829 501.474 114.73L500.653 113.987L499.833 113.244C498.844 114.336 497.849 115.422 496.848 116.501L497.659 117.254ZM503.607 110.683L504.437 111.415C505.418 110.304 506.391 109.186 507.357 108.062L506.517 107.34L505.677 106.619C504.718 107.736 503.751 108.846 502.777 109.951L503.607 110.683ZM509.381 103.959L510.231 104.668C511.181 103.53 512.124 102.385 513.057 101.234L512.197 100.537L511.337 99.84C510.411 100.982 509.475 102.119 508.531 103.249L509.381 103.959ZM514.961 97.0748L515.832 97.759C516.749 96.5919 517.657 95.419 518.554 94.2402L517.673 93.5697L516.793 92.8993C515.902 94.0687 515.002 95.2325 514.091 96.3907L514.961 97.0748ZM520.329 90.0213L521.221 90.6772C522.101 89.4805 522.97 88.2779 523.828 87.0697L522.925 86.4291L522.022 85.7884C521.172 86.9861 520.31 88.1785 519.437 89.3653L520.329 90.0213ZM525.458 82.7923L526.372 83.4168C527.21 82.1893 528.036 80.9562 528.849 79.7177L527.924 79.1103L526.998 78.503C526.193 79.7298 525.375 80.9515 524.544 82.1679L525.458 82.7923ZM530.319 75.3823L531.256 75.9716C532.048 74.7124 532.826 73.4478 533.589 72.1779L532.64 71.6078L531.691 71.0377C530.936 72.2946 530.166 73.5464 529.382 74.7931L530.319 75.3823ZM534.881 67.7862L535.842 68.336C536.581 67.0443 537.305 65.7473 538.012 64.4452L537.039 63.9168L536.066 63.3885C535.367 64.676 534.651 65.9586 533.92 67.2364L534.881 67.7862ZM539.11 59.9977L540.094 60.5033C540.775 59.1782 541.438 57.8478 542.083 56.5123L541.086 56.0308L540.09 55.5492C539.452 56.8682 538.797 58.1825 538.125 59.4921L539.11 59.9977ZM542.964 52.0163L543.973 52.4724C544.587 51.1147 545.182 49.7518 545.757 48.384L544.737 47.9548L543.717 47.5255C543.149 48.8749 542.562 50.2198 541.955 51.5602L542.964 52.0163ZM546.399 43.847L547.431 44.2479C547.7 43.5548 547.964 42.8604 548.223 42.1648L547.186 41.7786L546.149 41.3925C545.893 42.0781 545.633 42.7626 545.367 43.4461L546.399 43.847ZM547.186 41.7786L548.223 42.1648C548.468 41.5089 548.706 40.835 548.939 40.1445L547.89 39.791L546.841 39.4375C546.615 40.1069 546.384 40.759 546.149 41.3925L547.186 41.7786ZM549.125 35.7596L550.191 36.0558C550.563 34.7174 550.913 33.3333 551.236 31.9115L550.157 31.6659L549.077 31.4203C548.761 32.8091 548.421 34.1593 548.058 35.4633L549.125 35.7596ZM551.004 27.5228L552.093 27.7212C552.344 26.3421 552.571 24.9365 552.769 23.5105L551.673 23.3577L550.577 23.205C550.382 24.6004 550.161 25.9756 549.915 27.3245L551.004 27.5228ZM552.169 19.1619L553.271 19.2691C553.408 17.862 553.517 16.4413 553.595 15.0127L552.489 14.9523L551.384 14.8918C551.308 16.2886 551.201 17.6781 551.067 19.0548L552.169 19.1619ZM552.627 10.7309L553.734 10.7424C553.749 9.31851 553.731 7.89186 553.679 6.46785L552.573 6.50862L551.466 6.54939C551.518 7.93733 551.535 9.32913 551.52 10.7195L552.627 10.7309ZM552.311 2.29433L553.413 2.19693C553.287 0.768204 553.123 -0.652695 552.918 -2.06013L551.822 -1.9005L550.727 -1.74088C550.926 -0.376755 551.085 1.00258 551.208 2.39171L552.311 2.29433ZM551.084 -6.05713L552.167 -6.28587C551.869 -7.69937 551.524 -9.09317 551.131 -10.461L550.067 -10.155L549.003 -9.84898C549.381 -8.53505 549.713 -7.19295 550.001 -5.8284L551.084 -6.05713ZM548.737 -14.1624L549.772 -14.5549C549.257 -15.9139 548.685 -17.2386 548.054 -18.5218L547.061 -18.0331L546.067 -17.5444C546.666 -16.3277 547.21 -15.0674 547.702 -13.7698L548.737 -14.1624ZM544.998 -21.7178L545.932 -22.3113C545.15 -23.5421 544.301 -24.7209 543.381 -25.8394L542.526 -25.136L541.671 -24.4325C542.531 -23.3875 543.328 -22.2825 544.063 -21.1243L544.998 -21.7178ZM539.634 -28.2081L540.386 -29.0201C539.324 -30.0042 538.189 -30.9195 536.977 -31.758L536.347 -30.8477L535.717 -29.9374C536.841 -29.1598 537.895 -28.3105 538.881 -27.3961L539.634 -28.2081ZM532.716 -32.9946L533.21 -33.9849C532.563 -34.3083 531.898 -34.6124 531.215 -34.8965L530.79 -33.8745L530.364 -32.8524C531.001 -32.5877 531.619 -32.3047 532.221 -32.0042L532.716 -32.9946ZM530.79 -33.8745L531.215 -34.8965C530.522 -35.1849 529.821 -35.4531 529.112 -35.7019L528.745 -34.6573L528.379 -33.6128C529.049 -33.3776 529.711 -33.1243 530.364 -32.8524L530.79 -33.8745ZM524.544 -35.8824L524.798 -36.9598C523.353 -37.3011 521.882 -37.5725 520.391 -37.7791L520.239 -36.6826L520.087 -35.5862C521.513 -35.3886 522.915 -35.1296 524.29 -34.8051L524.544 -35.8824ZM515.879 -37.0999L515.94 -38.2052C514.469 -38.2861 512.983 -38.3114 511.485 -38.2856L511.504 -37.1788L511.523 -36.072C512.971 -36.0969 514.404 -36.0724 515.819 -35.9946L515.879 -37.0999ZM507.128 -36.9621L507.039 -38.0655C505.575 -37.9477 504.103 -37.7863 502.626 -37.5851L502.776 -36.4882L502.925 -35.3914C504.364 -35.5874 505.795 -35.7443 507.216 -35.8587L507.128 -36.9621ZM498.451 -35.7895L498.249 -36.8778C496.805 -36.6092 495.36 -36.3064 493.915 -35.9728L494.164 -34.8942L494.413 -33.8156C495.829 -34.1424 497.243 -34.4387 498.654 -34.7012L498.451 -35.7895ZM489.917 -33.8255L489.626 -34.8937C488.207 -34.5082 486.792 -34.0961 485.384 -33.6607L485.711 -32.6031L486.038 -31.5455C487.423 -31.9738 488.814 -32.3787 490.207 -32.7572L489.917 -33.8255ZM481.547 -31.2431L481.187 -32.29C479.793 -31.811 478.409 -31.3118 477.036 -30.7957L477.426 -29.7595L477.815 -28.7234C479.169 -29.2324 480.534 -29.7244 481.907 -30.1963L481.547 -31.2431ZM473.346 -28.1634L472.93 -29.189C471.56 -28.6322 470.205 -28.0613 468.868 -27.4796L469.309 -26.4646L469.751 -25.4495C471.072 -26.0243 472.41 -26.5882 473.763 -27.1379L473.346 -28.1634ZM465.312 -24.67L464.848 -25.6746C463.499 -25.0507 462.173 -24.4189 460.874 -23.783L461.361 -22.7887L461.847 -21.7944C463.133 -22.4235 464.444 -23.0484 465.777 -23.6653L465.312 -24.67ZM457.442 -20.8197L456.935 -21.8036C455.602 -21.1165 454.304 -20.4292 453.044 -19.7465L453.571 -18.7732L454.098 -17.7998C455.346 -18.4756 456.631 -19.1558 457.95 -19.8358L457.442 -20.8197ZM449.746 -16.6508L449.199 -17.6132C448.55 -17.2448 447.915 -16.8792 447.293 -16.5173L447.849 -15.5605L448.406 -14.6037C449.022 -14.9618 449.651 -15.3236 450.292 -15.6883L449.746 -16.6508ZM447.849 -15.5605L447.293 -16.5173C446.662 -16.1502 446.032 -15.7806 445.404 -15.4085L445.968 -14.4559L446.531 -13.5034C447.155 -13.8726 447.78 -14.2394 448.406 -14.6037L447.849 -15.5605ZM442.227 -12.2042L441.649 -13.1484C440.405 -12.3865 439.164 -11.6151 437.929 -10.8344L438.52 -9.89859L439.111 -8.96275C440.338 -9.73787 441.57 -10.5037 442.805 -11.2601L442.227 -12.2042ZM434.846 -7.54115L434.242 -8.46873C433.019 -7.67236 431.801 -6.86716 430.587 -6.05342L431.204 -5.134L431.82 -4.21458C433.026 -5.02292 434.236 -5.82268 435.45 -6.61357L434.846 -7.54115ZM427.594 -2.67915L426.965 -3.59053C425.764 -2.76244 424.567 -1.92616 423.375 -1.08203L424.015 -0.178604L424.655 0.724838C425.839 -0.114029 427.028 -0.945023 428.222 -1.76779L427.594 -2.67915ZM420.467 2.36578L419.817 1.47015C418.636 2.32742 417.461 3.1922 416.289 4.06418L416.95 4.95216L417.611 5.84015C418.776 4.97322 419.945 4.11356 421.118 3.26143L420.467 2.36578ZM413.463 7.57874L412.792 6.69826C411.632 7.58231 410.476 8.47322 409.325 9.37068L410.005 10.2438L410.686 11.1169C411.831 10.2243 412.98 9.3383 414.134 8.4592L413.463 7.57874ZM406.576 12.9457L405.886 12.0798C404.745 12.9884 403.609 13.9032 402.476 14.8239L403.175 15.6828L403.873 16.5417C405 15.6256 406.131 14.7155 407.265 13.8116L406.576 12.9457ZM399.801 18.4536L399.094 17.6016C397.972 18.5327 396.853 19.4693 395.739 20.4113L396.454 21.2566L397.168 22.102C398.277 21.1644 399.39 20.2322 400.508 19.3057L399.801 18.4536ZM393.133 24.0904L392.41 23.2515C391.305 24.2031 390.204 25.1597 389.107 26.121L389.837 26.9535L390.566 27.786C391.659 26.8289 392.755 25.8766 393.855 24.9292L393.133 24.0904ZM386.566 29.8446L385.829 29.0182C384.74 29.9886 383.656 30.9633 382.575 31.942L383.318 32.7625L384.061 33.583C385.138 32.6081 386.218 31.6374 387.302 30.6711L386.566 29.8446ZM380.094 35.7058L379.344 34.8911C378.271 35.8785 377.202 36.8697 376.136 37.8643L376.892 38.6734L377.647 39.4826C378.708 38.4916 379.774 37.5042 380.843 36.5206L380.094 35.7058ZM373.711 41.6641L372.95 40.8603C371.891 41.8632 370.836 42.8692 369.785 43.8781L370.551 44.6767L371.318 45.4753C372.365 44.4698 373.417 43.4672 374.472 42.4679L373.711 41.6641ZM367.411 47.7101L366.64 46.9165C365.594 47.9333 364.552 48.9527 363.514 49.9744L364.291 50.7633L365.067 51.5522C366.102 50.5336 367.141 49.5174 368.183 48.5038L367.411 47.7101ZM361.189 53.8352L360.407 53.0508C359.374 54.0803 358.344 55.1117 357.318 56.1447L358.104 56.9247L358.889 57.7047C359.912 56.6744 360.939 55.6459 361.97 54.6195L361.189 53.8352ZM355.036 60.0309L354.246 59.2551C353.224 60.2958 352.205 61.3378 351.191 62.381L351.984 63.1528L352.778 63.9247C353.79 62.8841 354.806 61.8447 355.826 60.8067L355.036 60.0309ZM348.947 66.2894L348.15 65.5213C347.138 66.5719 346.129 67.6233 345.124 68.6752L345.925 69.4398L346.725 70.2044C347.728 69.1548 348.734 68.1058 349.744 67.0576L348.947 66.2894ZM342.916 72.603L342.112 71.8416C341.611 72.3704 341.111 72.8992 340.612 73.4279L341.417 74.1877L342.222 74.9475C342.72 74.4197 343.219 73.892 343.719 73.3643L342.916 72.603ZM341.417 74.1877L340.612 73.4279C340.12 73.9491 339.624 74.4772 339.123 75.0118L339.932 75.7684L340.74 76.5249C341.238 75.9923 341.733 75.4665 342.222 74.9475L341.417 74.1877ZM336.962 78.965L336.148 78.2145C335.179 79.265 334.197 80.337 333.203 81.4288L334.022 82.1739L334.841 82.9189C335.831 81.8307 336.81 80.7623 337.775 79.7155L336.962 78.965ZM331.097 85.4074L330.274 84.6673C329.312 85.7378 328.341 86.8245 327.362 87.9259L328.189 88.6613L329.017 89.3966C329.993 88.2983 330.961 87.2147 331.921 86.1475L331.097 85.4074ZM325.306 91.9227L324.475 91.1919C323.523 92.2746 322.566 93.3696 321.603 94.4755L322.439 95.2021L323.274 95.9287C324.233 94.8256 325.188 93.7335 326.138 92.6536L325.306 91.9227ZM319.586 98.4976L318.747 97.7751C317.803 98.8712 316.856 99.9765 315.907 101.09L316.749 101.808L317.591 102.526C318.538 101.416 319.483 100.313 320.425 99.2199L319.586 98.4976ZM313.928 105.132L313.082 104.418C312.148 105.525 311.212 106.638 310.276 107.757L311.126 108.467L311.975 109.177C312.908 108.061 313.842 106.951 314.774 105.846L313.928 105.132ZM308.339 111.817L307.486 111.111C306.56 112.23 305.634 113.353 304.712 114.479L305.568 115.181L306.424 115.882C307.344 114.759 308.267 113.639 309.191 112.523L308.339 111.817ZM302.813 118.558L301.954 117.861C301.037 118.991 300.123 120.124 299.213 121.257L300.077 121.95L300.94 122.643C301.847 121.512 302.758 120.383 303.673 119.256L302.813 118.558ZM297.358 125.355L296.491 124.667C295.584 125.809 294.682 126.951 293.787 128.092L294.658 128.775L295.529 129.459C296.421 128.321 297.32 127.182 298.225 126.043L297.358 125.355ZM291.977 132.213L291.102 131.534C290.206 132.69 289.317 133.844 288.437 134.993L289.317 135.666L290.196 136.339C291.072 135.193 291.958 134.043 292.852 132.891L291.977 132.213ZM286.68 139.136L285.796 138.469C284.913 139.639 284.041 140.804 283.18 141.962L284.068 142.622L284.957 143.283C285.814 142.129 286.683 140.969 287.563 139.803L286.68 139.136ZM281.484 146.128L280.59 145.475C279.721 146.664 278.865 147.845 278.025 149.016L278.924 149.661L279.824 150.307C280.66 149.141 281.512 147.966 282.377 146.781L281.484 146.128ZM276.4 153.215L275.494 152.578C274.645 153.786 273.815 154.981 273.004 156.162L273.917 156.788L274.829 157.415C275.635 156.241 276.461 155.053 277.305 153.851L276.4 153.215ZM271.469 160.402L270.549 159.787C270.142 160.396 269.741 161.001 269.346 161.602L270.271 162.21L271.196 162.818C271.587 162.222 271.986 161.622 272.39 161.016L271.469 160.402ZM270.271 162.21L269.346 161.602C268.951 162.202 268.558 162.804 268.166 163.406L269.094 164.01L270.022 164.613C270.412 164.014 270.803 163.415 271.196 162.818L270.271 162.21ZM266.768 167.628L265.833 167.035C265.062 168.248 264.298 169.466 263.541 170.689L264.482 171.272L265.423 171.855C266.176 170.64 266.936 169.429 267.702 168.222L266.768 167.628ZM262.239 174.942L261.291 174.37C260.548 175.602 259.813 176.839 259.086 178.08L260.041 178.639L260.996 179.199C261.718 177.966 262.449 176.738 263.187 175.513L262.239 174.942ZM257.892 182.365L256.929 181.819C256.218 183.07 255.516 184.327 254.824 185.588L255.794 186.121L256.764 186.653C257.452 185.402 258.148 184.155 258.854 182.912L257.892 182.365ZM253.751 189.906L252.773 189.387C252.098 190.66 251.434 191.937 250.78 193.218L251.766 193.721L252.752 194.225C253.4 192.953 254.059 191.687 254.729 190.424L253.751 189.906ZM249.842 197.568L248.848 197.081C248.214 198.375 247.591 199.674 246.98 200.977L247.983 201.447L248.985 201.917C249.59 200.625 250.207 199.338 250.836 198.055L249.842 197.568ZM246.192 205.358L245.181 204.906C244.593 206.222 244.017 207.542 243.454 208.868L244.473 209.301L245.491 209.734C246.049 208.421 246.619 207.113 247.202 205.809L246.192 205.358ZM242.829 213.276L241.802 212.863C241.264 214.201 240.74 215.543 240.23 216.891L241.266 217.283L242.301 217.675C242.805 216.341 243.324 215.013 243.856 213.689L242.829 213.276ZM239.785 221.321L238.742 220.951C238.26 222.31 237.793 223.674 237.341 225.043L238.392 225.39L239.443 225.737C239.89 224.384 240.352 223.035 240.829 221.691L239.785 221.321ZM237.09 229.49L236.031 229.167C235.61 230.546 235.205 231.931 234.817 233.32L235.883 233.618L236.949 233.916C237.333 232.544 237.733 231.176 238.149 229.813L237.09 229.49ZM234.775 237.774L233.702 237.502C233.347 238.9 233.01 240.302 232.689 241.71L233.769 241.956L234.848 242.201C235.164 240.811 235.498 239.426 235.848 238.046L234.775 237.774ZM232.869 246.162L231.784 245.944C231.5 247.358 231.235 248.777 230.988 250.201L232.078 250.39L233.169 250.579C233.413 249.174 233.675 247.774 233.954 246.379L232.869 246.162ZM231.4 254.637L230.305 254.478C230.097 255.904 229.907 257.335 229.738 258.772L230.837 258.902L231.936 259.032C232.104 257.615 232.29 256.204 232.495 254.797L231.4 254.637ZM230.392 263.179L229.29 263.08C229.16 264.515 229.051 265.954 228.962 267.399L230.067 267.467L231.172 267.535C231.259 266.112 231.367 264.693 231.495 263.278L230.392 263.179ZM229.863 271.763L228.757 271.727C228.733 272.448 228.714 273.171 228.701 273.895L229.807 273.916L230.914 273.936C230.928 273.223 230.946 272.511 230.97 271.8L229.863 271.763ZM229.807 273.916L228.701 273.895C228.688 274.588 228.677 275.28 228.671 275.969L229.778 275.98L230.885 275.991C230.891 275.309 230.901 274.624 230.914 273.936L229.807 273.916ZM229.782 280.107L228.676 280.122C228.694 281.517 228.732 282.904 228.793 284.282L229.898 284.233L231.004 284.184C230.945 282.832 230.908 281.468 230.889 280.092L229.782 280.107ZM230.158 288.351L229.055 288.443C229.172 289.839 229.318 291.224 229.499 292.599L230.597 292.454L231.694 292.31C231.518 290.973 231.375 289.623 231.262 288.259L230.158 288.351ZM231.249 296.529L230.162 296.736C230.424 298.114 230.727 299.48 231.078 300.834L232.15 300.556L233.221 300.278C232.884 298.974 232.59 297.656 232.337 296.322L231.249 296.529ZM233.329 304.51L232.281 304.866C232.73 306.19 233.232 307.502 233.791 308.8L234.808 308.362L235.824 307.924C235.289 306.682 234.808 305.425 234.377 304.154L233.329 304.51ZM236.596 312.079L235.619 312.6C236.274 313.826 236.986 315.038 237.762 316.236L238.691 315.634L239.62 315.032C238.879 313.888 238.198 312.729 237.572 311.558L236.596 312.079ZM241.074 319.001L240.198 319.677C240.623 320.229 241.064 320.777 241.519 321.322L242.368 320.612L243.217 319.901C242.78 319.379 242.358 318.854 241.951 318.325L241.074 319.001ZM242.368 320.612L241.519 321.322C242.032 321.935 242.56 322.529 243.103 323.104L243.908 322.344L244.713 321.584C244.2 321.041 243.701 320.48 243.217 319.901L242.368 320.612ZM247.283 325.52L246.572 326.369C247.79 327.389 249.062 328.337 250.38 329.216L250.994 328.295L251.608 327.374C250.354 326.537 249.147 325.638 247.993 324.672L247.283 325.52ZM254.973 330.67L254.452 331.647C255.839 332.386 257.265 333.064 258.722 333.684L259.156 332.666L259.59 331.647C258.188 331.05 256.821 330.4 255.494 329.693L254.973 330.67ZM263.488 334.315L263.133 335.363C264.613 335.864 266.117 336.316 267.641 336.722L267.926 335.652L268.211 334.583C266.732 334.188 265.274 333.751 263.843 333.266L263.488 334.315ZM272.438 336.715L272.215 337.799C273.742 338.115 275.283 338.391 276.831 338.631L277.001 337.537L277.171 336.444C275.656 336.208 274.152 335.939 272.662 335.631L272.438 336.715ZM281.596 338.149L281.473 339.249C283.025 339.423 284.579 339.566 286.13 339.681L286.212 338.578L286.295 337.474C284.769 337.36 283.242 337.219 281.719 337.049L281.596 338.149ZM290.841 338.847L290.794 339.953C292.359 340.019 293.916 340.062 295.459 340.086L295.476 338.979L295.492 337.872C293.968 337.849 292.432 337.807 290.888 337.741L290.841 338.847ZM300.112 338.993L300.122 340.1C301.698 340.087 303.252 340.057 304.778 340.014L304.748 338.908L304.717 337.801C303.204 337.843 301.664 337.873 300.103 337.886L300.112 338.993ZM309.38 338.743L309.427 339.849C310.21 339.816 310.984 339.781 311.746 339.744L311.693 338.638L311.639 337.532C310.881 337.569 310.111 337.604 309.332 337.638L309.38 338.743ZM311.693 338.638L311.746 339.744C312.496 339.707 313.256 339.666 314.025 339.618L313.958 338.513L313.89 337.409C313.13 337.455 312.379 337.496 311.639 337.532L311.693 338.638ZM318.485 338.185L318.577 339.288C320.065 339.164 321.581 339.023 323.119 338.866L323.007 337.765L322.895 336.663C321.369 336.819 319.867 336.959 318.393 337.081L318.485 338.185ZM327.521 337.267L327.651 338.367C329.144 338.191 330.652 338.002 332.173 337.801L332.028 336.703L331.883 335.606C330.372 335.805 328.874 335.993 327.392 336.168L327.521 337.267ZM336.527 336.079L336.686 337.174C338.181 336.957 339.683 336.73 341.19 336.494L341.018 335.4L340.846 334.306C339.348 334.542 337.854 334.768 336.368 334.983L336.527 336.079ZM345.501 334.67L345.684 335.762C347.18 335.51 348.677 335.25 350.17 334.983L349.975 333.893L349.78 332.803C348.294 333.07 346.805 333.328 345.317 333.579L345.501 334.67ZM354.441 333.069L354.647 334.157C356.145 333.873 357.636 333.582 359.116 333.286L358.899 332.2L358.682 331.115C357.209 331.41 355.725 331.699 354.235 331.982L354.441 333.069ZM363.348 331.286L363.577 332.369C365.077 332.053 366.562 331.732 368.027 331.406L367.787 330.326L367.548 329.245C366.09 329.568 364.613 329.888 363.12 330.203L363.348 331.286ZM372.216 329.317L372.468 330.395C373.972 330.043 375.45 329.688 376.897 329.331L376.631 328.256L376.366 327.182C374.929 327.536 373.46 327.889 371.964 328.239L372.216 329.317ZM381.031 327.139L381.311 328.21C382.056 328.015 382.789 327.82 383.511 327.625L383.223 326.556L382.935 325.488C382.218 325.681 381.49 325.875 380.751 326.068L381.031 327.139ZM383.223 326.556L383.511 327.625C384.215 327.435 384.917 327.244 385.619 327.05L385.324 325.983L385.029 324.916C384.332 325.108 383.633 325.299 382.935 325.488L383.223 326.556ZM389.513 324.799L389.82 325.862C391.219 325.458 392.615 325.046 394.008 324.626L393.689 323.566L393.369 322.506C391.984 322.924 390.596 323.333 389.206 323.735L389.513 324.799ZM397.85 322.285L398.182 323.341C399.571 322.905 400.957 322.461 402.34 322.01L401.997 320.958L401.654 319.905C400.278 320.354 398.9 320.795 397.519 321.229L397.85 322.285ZM406.128 319.584L406.483 320.632C407.862 320.166 409.238 319.691 410.611 319.21L410.245 318.165L409.878 317.121C408.513 317.6 407.144 318.071 405.773 318.535L406.128 319.584ZM414.346 316.702L414.723 317.743C416.091 317.247 417.456 316.743 418.819 316.233L418.431 315.196L418.042 314.159C416.687 314.667 415.329 315.168 413.968 315.662L414.346 316.702ZM422.5 313.648L422.899 314.68C424.256 314.156 425.611 313.624 426.963 313.086L426.553 312.058L426.144 311.029C424.799 311.565 423.451 312.093 422.101 312.615L422.5 313.648ZM430.59 310.427L431.01 311.452C432.356 310.9 433.7 310.342 435.041 309.778L434.611 308.757L434.182 307.737C432.847 308.299 431.51 308.854 430.171 309.403L430.59 310.427ZM438.616 307.049L439.055 308.065C440.39 307.488 441.723 306.904 443.053 306.315L442.604 305.303L442.156 304.291C440.832 304.878 439.506 305.458 438.177 306.033L438.616 307.049ZM446.577 303.52L447.034 304.528C448.359 303.926 449.68 303.318 450.999 302.705L450.532 301.701L450.065 300.697C448.752 301.308 447.437 301.913 446.119 302.512L446.577 303.52ZM454.472 299.847L454.948 300.847C456.261 300.222 457.572 299.591 458.88 298.955L458.395 297.959L457.911 296.964C456.609 297.598 455.304 298.226 453.996 298.848L454.472 299.847ZM462.303 296.039L462.795 297.03C464.098 296.383 465.397 295.73 466.695 295.073L466.194 294.085L465.693 293.098C464.401 293.753 463.107 294.403 461.81 295.047L462.303 296.039ZM470.069 292.101L470.578 293.084C471.869 292.416 473.158 291.743 474.445 291.065L473.929 290.086L473.413 289.106C472.131 289.782 470.847 290.452 469.561 291.117L470.069 292.101ZM477.773 288.041L478.296 289.016C479.577 288.328 480.856 287.636 482.132 286.938L481.601 285.967L481.07 284.996C479.799 285.69 478.525 286.38 477.249 287.065L477.773 288.041ZM485.414 283.865L485.952 284.833C487.223 284.126 488.491 283.415 489.757 282.7L489.212 281.736L488.667 280.772C487.406 281.485 486.142 282.194 484.876 282.898L485.414 283.865ZM492.995 279.581L493.546 280.541C494.807 279.817 496.065 279.088 497.321 278.356L496.763 277.4L496.206 276.443C494.954 277.173 493.7 277.899 492.444 278.621L492.995 279.581ZM500.517 275.194L501.081 276.146C502.332 275.406 503.581 274.661 504.827 273.913L504.257 272.964L503.687 272.015C502.445 272.761 501.2 273.503 499.953 274.241L500.517 275.194ZM507.982 270.71L508.558 271.656C509.799 270.9 511.039 270.14 512.275 269.376L511.694 268.434L511.112 267.492C509.879 268.253 508.644 269.011 507.406 269.765L507.982 270.71ZM515.392 266.136L515.979 267.075C517.212 266.304 518.442 265.53 519.669 264.753L519.077 263.817L518.485 262.882C517.261 263.657 516.034 264.429 514.805 265.198L515.392 266.136ZM522.749 261.478L523.346 262.41C524.57 261.626 525.792 260.838 527.011 260.048L526.409 259.119L525.806 258.19C524.591 258.978 523.372 259.764 522.152 260.546L522.749 261.478ZM530.056 256.741L530.663 257.666C531.878 256.869 533.092 256.069 534.303 255.267L533.691 254.344L533.079 253.421C531.872 254.222 530.661 255.02 529.449 255.815L530.056 256.741ZM537.314 251.93L537.93 252.85C539.138 252.041 540.343 251.229 541.546 250.415L540.926 249.499L540.306 248.582C539.106 249.394 537.903 250.203 536.698 251.01L537.314 251.93ZM544.527 247.051L545.152 247.965C545.751 247.555 546.351 247.145 546.949 246.734L546.323 245.821L545.697 244.909C545.099 245.319 544.501 245.728 543.903 246.137L544.527 247.051ZM546.323 245.821L546.949 246.734C547.563 246.313 548.177 245.891 548.79 245.468L548.161 244.557L547.532 243.646C546.921 244.068 546.309 244.489 545.697 244.909L546.323 245.821ZM551.826 242.011L552.46 242.918C553.681 242.065 554.9 241.207 556.116 240.347L555.477 239.443L554.838 238.54C553.625 239.398 552.409 240.252 551.192 241.103L551.826 242.011ZM559.112 236.855L559.757 237.755C560.968 236.888 562.176 236.017 563.383 235.142L562.733 234.246L562.083 233.35C560.88 234.222 559.675 235.091 558.468 235.955L559.112 236.855ZM566.338 231.616L566.993 232.509C568.194 231.627 569.393 230.742 570.588 229.854L569.928 228.965L569.268 228.077C568.076 228.963 566.881 229.845 565.683 230.724L566.338 231.616ZM573.503 226.293L574.169 227.178C575.359 226.283 576.547 225.384 577.732 224.482L577.062 223.601L576.391 222.72C575.209 223.62 574.025 224.516 572.838 225.409L573.503 226.293ZM580.605 220.887L581.281 221.764C582.461 220.855 583.638 219.942 584.813 219.026L584.132 218.153L583.452 217.28C582.28 218.194 581.106 219.104 579.93 220.01L580.605 220.887ZM587.643 215.398L588.329 216.267C589.499 215.344 590.665 214.418 591.829 213.488L591.138 212.623L590.447 211.758C589.287 212.685 588.123 213.609 586.957 214.53L587.643 215.398ZM594.616 209.827L595.312 210.688C596.471 209.751 597.626 208.811 598.779 207.867L598.078 207.01L597.377 206.154C596.227 207.095 595.075 208.032 593.92 208.966L594.616 209.827ZM601.523 204.173L602.229 205.026C603.376 204.075 604.521 203.121 605.662 202.164L604.951 201.316L604.239 200.467C603.101 201.422 601.96 202.373 600.817 203.321L601.523 204.173ZM608.362 198.437L609.078 199.281C610.214 198.317 611.346 197.35 612.476 196.379L611.755 195.539L611.033 194.699C609.907 195.668 608.777 196.632 607.645 197.594L608.362 198.437ZM615.131 192.62L615.857 193.455C616.981 192.478 618.103 191.496 619.221 190.512L618.489 189.681L617.758 188.85C616.643 189.832 615.525 190.81 614.404 191.785L615.131 192.62ZM621.829 186.722L622.566 187.548C623.678 186.557 624.787 185.562 625.893 184.564L625.152 183.742L624.41 182.92C623.307 183.915 622.202 184.907 621.093 185.895L621.829 186.722ZM628.456 180.742L629.203 181.56C630.303 180.555 631.4 179.547 632.493 178.535L631.742 177.722L630.99 176.91C629.9 177.918 628.806 178.923 627.709 179.925L628.456 180.742ZM635.009 174.682L635.766 175.49C636.853 174.472 637.938 173.451 639.019 172.426L638.257 171.622L637.496 170.819C636.418 171.841 635.337 172.859 634.252 173.874L635.009 174.682ZM641.487 168.542L642.253 169.341C643.328 168.309 644.4 167.274 645.469 166.236L644.697 165.442L643.926 164.648C642.861 165.683 641.792 166.715 640.72 167.744L641.487 168.542ZM647.888 162.322L648.665 163.111C649.727 162.066 650.785 161.018 651.841 159.967L651.06 159.182L650.278 158.398C649.226 159.446 648.171 160.491 647.112 161.533L647.888 162.322ZM654.211 156.023L654.998 156.802C656.047 155.744 657.092 154.683 658.134 153.618L657.343 152.844L656.552 152.069C655.513 153.131 654.471 154.189 653.425 155.244L654.211 156.023ZM660.455 149.645L661.251 150.414C662.286 149.343 663.318 148.268 664.347 147.19L663.546 146.426L662.746 145.662C661.72 146.736 660.691 147.807 659.659 148.875L660.455 149.645ZM666.617 143.188L667.423 143.947C668.445 142.863 669.463 141.775 670.478 140.684L669.667 139.93L668.857 139.176C667.845 140.263 666.83 141.348 665.812 142.429L666.617 143.188ZM672.696 136.653L673.512 137.402C674.52 136.304 675.524 135.204 676.525 134.1L675.705 133.356L674.885 132.613C673.887 133.713 672.886 134.81 671.881 135.904L672.696 136.653ZM678.691 130.04L679.516 130.779C680.51 129.668 681.5 128.555 682.486 127.438L681.657 126.705L680.827 125.972C679.844 127.085 678.857 128.195 677.867 129.302L678.691 130.04ZM684.6 123.351L685.435 124.078C686.414 122.955 687.389 121.829 688.361 120.699L687.522 119.977L686.682 119.255C685.714 120.381 684.742 121.504 683.766 122.623L684.6 123.351ZM690.421 116.584L691.265 117.301C692.229 116.165 693.19 115.026 694.146 113.884L693.298 113.173L692.449 112.462C691.496 113.6 690.538 114.736 689.577 115.868L690.421 116.584ZM696.152 109.742L697.005 110.447C697.955 109.299 698.9 108.147 699.842 106.992L698.984 106.293L698.126 105.593C697.187 106.744 696.245 107.892 695.299 109.037L696.152 109.742ZM701.792 102.824L702.655 103.518C703.589 102.357 704.519 101.193 705.445 100.025L704.577 99.3375L703.71 98.6495C702.787 99.813 701.86 100.973 700.93 102.131L701.792 102.824ZM707.339 95.8319L708.211 96.514C709.129 95.3404 710.043 94.1638 710.954 92.984L710.077 92.3078L709.201 91.6316C708.294 92.8074 707.382 93.9801 706.467 95.1498L707.339 95.8319ZM712.791 88.7652L713.672 89.4355C714.574 88.2496 715.473 87.0606 716.367 85.8686L715.481 85.2043L714.596 84.5401C713.705 85.7281 712.809 86.9131 711.91 88.095L712.791 88.7652ZM718.147 81.6252L719.037 82.2833C719.923 81.0852 720.805 79.884 721.682 78.6798L720.788 78.0277L719.893 77.3757C719.019 78.5758 718.14 79.7729 717.257 80.967L718.147 81.6252ZM723.404 74.4123L724.303 75.0582C725.172 73.848 726.038 72.6347 726.899 71.4185L725.995 70.7789L725.092 70.1393C724.234 71.3513 723.371 72.5604 722.505 73.7664L723.404 74.4123ZM728.561 67.1275L729.469 67.7608C730.322 66.5387 731.17 65.3136 732.014 64.0855L731.102 63.4585L730.189 62.8316C729.348 64.0554 728.503 65.2763 727.653 66.4942L728.561 67.1275ZM733.616 59.7717L734.533 60.3923C735.368 59.1584 736.199 57.9214 737.026 56.6815L736.105 56.0674L735.184 55.4533C734.36 56.6889 733.532 57.9215 732.7 59.1512L733.616 59.7717ZM738.568 52.3458L739.493 52.9533C740.311 51.7076 741.125 50.459 741.934 49.2074L741.004 48.6064L740.075 48.0054C739.268 49.2526 738.458 50.4969 737.642 51.7382L738.568 52.3458ZM743.414 44.8505L744.347 45.4449C745.148 44.1877 745.943 42.9276 746.735 41.6646L745.796 41.0769L744.858 40.4893C744.07 41.7478 743.277 43.0034 742.48 44.2561L743.414 44.8505ZM748.152 37.2867L749.094 37.8676C749.876 36.5993 750.654 35.328 751.427 34.0538L750.481 33.4797L749.534 32.9055C748.764 34.1751 747.989 35.4419 747.21 36.7057L748.152 37.2867ZM752.782 29.6554L753.732 30.2227C754.496 28.9433 755.255 27.661 756.009 26.3759L755.055 25.8155L754.1 25.2551C753.348 26.5356 752.592 27.8133 751.831 29.088L752.782 29.6554ZM757.3 21.9585L758.259 22.5119C759.004 21.2214 759.744 19.9281 760.48 18.6319L759.517 18.0854L758.554 17.539C757.821 18.8305 757.083 20.1192 756.341 21.405L757.3 21.9585ZM761.705 14.1965L762.672 14.7358C763.398 13.4343 764.12 12.1299 764.836 10.8227L763.866 10.2905L762.895 9.75832C762.181 11.0607 761.462 12.3603 760.739 13.6571L761.705 14.1965ZM765.996 6.37038L766.971 6.8954C767.678 5.58347 768.38 4.26872 769.077 2.95117L768.099 2.4334L767.12 1.9156C766.426 3.2283 765.726 4.53822 765.022 5.84535L765.996 6.37038ZM770.171 -1.51869L771.154 -1.00819C771.841 -2.33025 772.523 -3.65508 773.201 -4.9827L772.215 -5.48586L771.229 -5.98901C770.554 -4.66631 769.874 -3.34636 769.189 -2.02919L770.171 -1.51869ZM774.229 -9.46962L775.218 -8.97386C775.885 -10.3057 776.548 -11.6404 777.205 -12.9777L776.212 -13.466L775.218 -13.9543C774.563 -12.6219 773.904 -11.2923 773.239 -9.96536L774.229 -9.46962ZM778.165 -17.4789L779.162 -16.9981C779.486 -17.6696 779.809 -18.3418 780.13 -19.0147L779.131 -19.4917L778.132 -19.9688C777.812 -19.2984 777.491 -18.6288 777.168 -17.9597L778.165 -17.4789ZM779.131 -19.4917L780.13 -19.0147C780.449 -19.683 780.766 -20.3519 781.08 -21.0214L780.078 -21.4914L779.075 -21.9614C778.763 -21.2965 778.449 -20.6323 778.132 -19.9688L779.131 -19.4917ZM781.927 -25.5072L782.936 -25.0509C783.546 -26.3997 784.146 -27.7509 784.737 -29.1042L783.723 -29.5473L782.708 -29.9903C782.121 -28.6456 781.524 -27.3032 780.918 -25.9634L781.927 -25.5072ZM785.467 -33.6099L786.487 -33.1796C787.062 -34.5427 787.628 -35.9079 788.186 -37.2751L787.161 -37.6935L786.137 -38.1118C785.582 -36.7524 785.019 -35.3952 784.447 -34.0403L785.467 -33.6099ZM788.809 -41.7961L789.839 -41.3892C790.382 -42.7644 790.918 -44.1414 791.446 -45.5202L790.413 -45.9163L789.379 -46.3125C788.853 -44.9406 788.32 -43.5708 787.78 -42.203L788.809 -41.7961ZM791.975 -50.0525L793.012 -49.6665C793.528 -51.0516 794.036 -52.4383 794.538 -53.8266L793.498 -54.2032L792.457 -54.5799C791.956 -53.1976 791.45 -51.8172 790.937 -50.4386L791.975 -50.0525ZM794.984 -58.367L796.028 -57.999C796.519 -59.3922 797.005 -60.7867 797.485 -62.1825L796.438 -62.5425L795.391 -62.9025C794.913 -61.5118 794.429 -60.1226 793.94 -58.735L794.984 -58.367ZM797.861 -66.7285L798.91 -66.3757C799.381 -67.7751 799.847 -69.1757 800.308 -70.5773L799.257 -70.9236L798.206 -71.27C797.745 -69.8724 797.281 -68.4762 796.812 -67.0813L797.861 -66.7285ZM800.629 -75.1268L801.682 -74.7862C802.136 -76.1903 802.586 -77.5954 803.034 -79.0012L801.979 -79.3369L800.924 -79.6726C800.478 -78.2698 800.028 -76.868 799.575 -75.4674L800.629 -75.1268ZM803.311 -83.5527L804.367 -83.2212C804.809 -84.6286 805.248 -86.0366 805.685 -87.4452L804.628 -87.7733L803.571 -88.1015C803.134 -86.6949 802.696 -85.2891 802.255 -83.8842L803.311 -83.5527ZM805.933 -91.9976L806.991 -91.672C807.425 -93.0813 807.857 -94.4909 808.288 -95.9008L807.23 -96.2246L806.171 -96.5483C805.74 -95.1393 805.309 -93.7309 804.875 -92.3231L805.933 -91.9976ZM808.521 -100.453L809.579 -100.131C810.009 -101.54 810.438 -102.95 810.868 -104.36L809.809 -104.683L808.75 -105.005C808.32 -103.595 807.891 -102.185 807.462 -100.776L808.521 -100.453ZM811.098 -108.912L812.156 -108.589C812.586 -109.998 813.017 -111.407 813.448 -112.816L812.39 -113.14L811.332 -113.465C810.9 -112.055 810.469 -110.645 810.039 -109.235L811.098 -108.912ZM813.689 -117.366L814.747 -117.04C815.181 -118.447 815.617 -119.854 816.056 -121.26L814.999 -121.589L813.942 -121.919C813.503 -120.51 813.066 -119.102 812.632 -117.693L813.689 -117.366ZM816.321 -125.808L817.377 -125.475C817.82 -126.879 818.265 -128.282 818.714 -129.685L817.66 -130.022L816.605 -130.36C816.156 -128.954 815.709 -127.548 815.265 -126.141L816.321 -125.808ZM819.017 -134.23L820.07 -133.887C820.525 -135.286 820.984 -136.685 821.448 -138.082L820.397 -138.43L819.346 -138.779C818.882 -137.377 818.421 -135.975 817.965 -134.573L819.017 -134.23ZM821.802 -142.623L822.85 -142.267C823.322 -143.66 823.799 -145.052 824.281 -146.443L823.235 -146.805L822.189 -147.168C821.705 -145.772 821.227 -144.375 820.754 -142.978L821.802 -142.623ZM824.699 -150.977L825.742 -150.606C825.988 -151.299 826.236 -151.992 826.485 -152.684L825.444 -153.059L824.402 -153.434C824.152 -152.739 823.903 -152.043 823.656 -151.348L824.699 -150.977Z" fill="#2C2C2C"/>
</svg>
