<svg width="12" height="12" viewBox="0 0 12 12" fill="none" xmlns="http://www.w3.org/2000/svg">
<path d="M2.7544 2.73713C2.96826 2.52381 2.96839 2.17743 2.75469 1.96395L2.54684 1.75631C2.33331 1.54299 1.98718 1.54347 1.77424 1.75739V1.75739C1.56225 1.97034 1.56225 2.31459 1.77424 2.52755L1.98151 2.73576C2.1945 2.94972 2.54066 2.95033 2.7544 2.73713V2.73713ZM1.63636 6C1.63636 5.69738 1.39104 5.45205 1.08842 5.45205H0.547945C0.245323 5.45205 0 5.69738 0 6V6C0 6.30262 0.245323 6.54795 0.547945 6.54795H1.08842C1.39104 6.54795 1.63636 6.30262 1.63636 6V6ZM6.54545 0.545454C6.54545 0.244208 6.30125 0 6 0V0C5.69875 0 5.45455 0.244208 5.45455 0.545455V1.07098C5.45455 1.37223 5.69875 1.61644 6 1.61644V1.61644C6.30125 1.61644 6.54545 1.37223 6.54545 1.07098V0.545454ZM10.2263 2.52701C10.438 2.31435 10.438 1.97058 10.2263 1.75792V1.75792C10.0132 1.54389 9.66676 1.54389 9.4537 1.75792L9.24643 1.96614C9.03474 2.1788 9.03474 2.52257 9.24643 2.73523V2.73523C9.45949 2.94926 9.80596 2.94926 10.019 2.73523L10.2263 2.52701ZM9.23826 9.2675C9.0279 9.47882 9.02742 9.82028 9.2372 10.0322L9.44933 10.2465C9.66162 10.4609 10.008 10.4614 10.2208 10.2476V10.2476C10.4324 10.0351 10.4319 9.69144 10.2198 9.47954L10.0064 9.26643C9.79413 9.05433 9.44998 9.05481 9.23826 9.2675V9.2675ZM10.9116 5.45205C10.609 5.45205 10.3636 5.69738 10.3636 6V6C10.3636 6.30262 10.609 6.54795 10.9116 6.54795H11.4521C11.7547 6.54795 12 6.30262 12 6V6C12 5.69738 11.7547 5.45205 11.4521 5.45205H10.9116ZM6 2.71233C4.19455 2.71233 2.72727 4.1863 2.72727 6C2.72727 7.8137 4.19455 9.28767 6 9.28767C7.80545 9.28767 9.27273 7.8137 9.27273 6C9.27273 4.1863 7.80545 2.71233 6 2.71233ZM5.45455 11.4545C5.45455 11.7558 5.69875 12 6 12V12C6.30125 12 6.54545 11.7558 6.54545 11.4545V10.929C6.54545 10.6278 6.30125 10.3836 6 10.3836V10.3836C5.69875 10.3836 5.45455 10.6278 5.45455 10.929V11.4545ZM1.77156 9.47301C1.56088 9.68583 1.56136 10.0288 1.77263 10.241V10.241C1.98611 10.4555 2.33341 10.455 2.54628 10.2399L2.75571 10.0284C2.96639 9.81554 2.96591 9.47261 2.75464 9.26037V9.26037C2.54117 9.04592 2.19387 9.0464 1.98099 9.26145L1.77156 9.47301Z" fill="#4F4F4F"/>
</svg>
