<svg width="54" height="54" viewBox="0 0 54 54" fill="none" xmlns="http://www.w3.org/2000/svg">
<path d="M53.33 27.33C53.33 12.6034 41.3917 0.665039 26.665 0.665039C11.9383 0.665039 0 12.6034 0 27.33C0 42.0567 11.9383 53.995 26.665 53.995C41.3917 53.995 53.33 42.0567 53.33 27.33Z" fill="#CCFE00"/>
<path d="M19.2045 19.5128C19.6974 17.0204 22.1173 15.3995 24.6097 15.8924L34.8822 17.9238L36.0663 27.5364L22.8249 24.9179C20.3326 24.4251 18.7117 22.0051 19.2045 19.5128V19.5128Z" fill="#111111"/>
<path d="M34.6684 30.4695C34.1002 27.9932 31.6323 26.4464 29.156 27.0145L18.9498 29.3561L18.0573 39.0001L31.2133 35.9818C33.6896 35.4137 35.2365 32.9458 34.6684 30.4695V30.4695Z" fill="#111111"/>
</svg>
