<svg width="99" height="54" viewBox="0 0 99 54" fill="none" xmlns="http://www.w3.org/2000/svg">
<rect width="99" height="29" transform="translate(0 0.444336)" fill="#CCFE00"/>
<path d="M6.81625 16.9483H9.45625V19.3243C9.50425 19.3403 9.55225 19.3563 9.60025 19.3723C9.96825 19.5323 10.3682 19.6683 10.8002 19.7803C11.2482 19.8763 11.7202 19.9243 12.2162 19.9243C13.1122 19.9243 13.8082 19.7483 14.3042 19.3963C14.8002 19.0283 15.0482 18.5403 15.0482 17.9323C15.0482 17.3883 14.8402 16.9483 14.4242 16.6123C14.0242 16.2763 13.5202 15.9803 12.9122 15.7243C12.3202 15.4683 11.6642 15.2123 10.9442 14.9563C10.2402 14.7003 9.58425 14.3803 8.97625 13.9963C8.38425 13.5963 7.88025 13.1003 7.46425 12.5083C7.06425 11.9163 6.86425 11.1483 6.86425 10.2043C6.86425 9.48434 7.00025 8.82834 7.27225 8.23634C7.56025 7.62833 7.95225 7.10834 8.44825 6.67634C8.96025 6.24434 9.56825 5.90834 10.2722 5.66833C10.9762 5.42833 11.7602 5.30833 12.6242 5.30833C13.6002 5.30833 14.5602 5.39634 15.5042 5.57234C16.4482 5.74834 17.2002 5.98834 17.7602 6.29234V11.1643H15.1202V8.50034C15.0722 8.50034 15.0242 8.49234 14.9762 8.47634C14.6242 8.38034 14.2402 8.30834 13.8242 8.26034C13.4242 8.19634 13.0242 8.16434 12.6242 8.16434C11.8562 8.16434 11.2482 8.31634 10.8002 8.62034C10.3682 8.92434 10.1522 9.33233 10.1522 9.84434C10.1522 10.3723 10.3522 10.8043 10.7522 11.1403C11.1682 11.4763 11.6722 11.7803 12.2642 12.0523C12.8722 12.3243 13.5282 12.5963 14.2322 12.8683C14.9522 13.1403 15.6082 13.4763 16.2002 13.8763C16.8082 14.2603 17.3122 14.7483 17.7122 15.3403C18.1282 15.9323 18.3362 16.6763 18.3362 17.5723C18.3362 18.4363 18.1762 19.1963 17.8562 19.8523C17.5362 20.4923 17.0882 21.0363 16.5122 21.4843C15.9362 21.9163 15.2562 22.2363 14.4722 22.4443C13.6882 22.6683 12.8402 22.7803 11.9282 22.7803C11.3202 22.7803 10.7522 22.7323 10.2242 22.6363C9.71225 22.5403 9.23225 22.4203 8.78425 22.2763C8.35225 22.1323 7.96825 21.9803 7.63225 21.8203C7.29625 21.6603 7.02425 21.5243 6.81625 21.4123V16.9483ZM21.4229 19.5163H25.6709V8.57234H21.4229V5.64433H33.2309V8.57234H28.9589V19.5163H33.2309V22.4443H21.4229V19.5163ZM45.1495 13.4923L45.2695 10.8763H45.1255L42.4375 15.2683H41.8615L39.0535 10.8763H38.9335L39.0775 13.2283V22.4443H35.9575V5.64433H39.2935L42.1735 10.3003H42.2695L45.1255 5.64433H48.4375V22.4443H45.1495V13.4923ZM51.6201 5.81234C52.2921 5.68434 53.0281 5.58834 53.8281 5.52433C54.6441 5.44433 55.4521 5.40434 56.2521 5.40434C57.0841 5.40434 57.9161 5.47634 58.7481 5.62034C59.5961 5.74834 60.3561 6.02034 61.0281 6.43633C61.7001 6.83634 62.2441 7.40434 62.6601 8.14034C63.0921 8.86034 63.3081 9.80434 63.3081 10.9723C63.3081 11.9963 63.1241 12.8763 62.7561 13.6123C62.3881 14.3323 61.9001 14.9323 61.2921 15.4123C60.6841 15.8763 59.9881 16.2203 59.2041 16.4443C58.4361 16.6523 57.6361 16.7563 56.8041 16.7563C56.7241 16.7563 56.5961 16.7563 56.4201 16.7563C56.2441 16.7563 56.0601 16.7563 55.8681 16.7563C55.6761 16.7403 55.4841 16.7243 55.2921 16.7083C55.1161 16.6923 54.9881 16.6763 54.9081 16.6603V22.4443H51.6201V5.81234ZM56.5161 8.23634C56.1961 8.23634 55.8921 8.25234 55.6041 8.28434C55.3161 8.30033 55.0841 8.32434 54.9081 8.35634V13.8043C54.9721 13.8203 55.0681 13.8363 55.1961 13.8523C55.3241 13.8683 55.4601 13.8843 55.6041 13.9003C55.7481 13.9003 55.8841 13.9003 56.0121 13.9003C56.1561 13.9003 56.2601 13.9003 56.3241 13.9003C56.7561 13.9003 57.1801 13.8603 57.5961 13.7803C58.0281 13.7003 58.4121 13.5563 58.7481 13.3483C59.0841 13.1243 59.3481 12.8203 59.5401 12.4363C59.7481 12.0523 59.8521 11.5483 59.8521 10.9243C59.8521 10.3963 59.7561 9.96434 59.5641 9.62833C59.3721 9.27633 59.1161 8.99634 58.7961 8.78834C58.4921 8.58034 58.1401 8.43634 57.7401 8.35634C57.3401 8.27634 56.9321 8.23634 56.5161 8.23634ZM74.6747 15.6043H77.6507V22.4443H66.6107V5.64433H69.8987V19.5163H74.6747V15.6043ZM85.1774 16.2523L79.7534 5.64433H83.6654L86.9054 12.5803H87.0254L90.3374 5.64433H93.8654L88.4654 16.2283V22.4443H85.1774V16.2523Z" fill="#111111"/>
<rect width="70" height="29" transform="translate(0 24.4443)" fill="#CCFE00"/>
<path d="M8.8295 43.8043H11.5655V32.2843H9.2615V35.1883H6.6215V29.6443H19.7735V35.1883H17.1335V32.2843H14.8535V43.8043H17.5655V46.4443H8.8295V43.8043ZM22.5481 29.6443H33.5641V32.5723H25.8361V36.4843H32.9641V39.4123H25.8361V43.5163H33.6841V46.4443H22.5481V29.6443ZM45.3388 42.7243H40.3228L39.1708 46.4443H35.8828L41.3068 29.6443H44.5948L49.9948 46.4443H46.5388L45.3388 42.7243ZM41.0908 40.0843H44.6908L42.9868 34.4683H42.7708L41.0908 40.0843ZM60.7614 37.4923L60.8814 34.8763H60.7374L58.0494 39.2683H57.4734L54.6654 34.8763H54.5454L54.6894 37.2283V46.4443H51.5694V29.6443H54.9054L57.7854 34.3003H57.8814L60.7374 29.6443H64.0494V46.4443H60.7614V37.4923Z" fill="#111111"/>
</svg>
